<svg width="165" height="37" viewBox="0 0 165 37" fill="none" xmlns="http://www.w3.org/2000/svg">
<g clip-path="url(#clip0_7659_7092)">
<path fill-rule="evenodd" clip-rule="evenodd" d="M17.305 33.6072L14.043 31.0248L18.5368 20.2807L23.1447 30.7739L19.6317 33.6069V28.1734H19.6089H17.3278H17.305V33.6072ZM19.8598 25.7782C19.8598 26.5467 19.2369 27.1697 18.4683 27.1697C17.6998 27.1697 17.0769 26.5467 17.0769 25.7782C17.0769 25.0097 17.6998 24.3867 18.4683 24.3867C19.2369 24.3867 19.8598 25.0097 19.8598 25.7782Z" fill="url(#paint0_linear_7659_7092)"/>
<path fill-rule="evenodd" clip-rule="evenodd" d="M18.665 9.13393C18.1479 7.8108 16.4019 4.90901 13.555 3.887C12.2014 3.19502 8.54073 2.42699 4.72643 4.89076C2.84058 6.22914 -0.49311 10.1652 1.2589 15.2022C1.81177 17.2091 4.43132 22.5408 10.4922 27.8665L13.7232 20.5921L16.7801 13.4745C16.8714 13.2464 17.1497 12.7309 17.5329 12.4936C17.8523 12.2579 18.7375 11.9187 19.723 12.448C19.9283 12.5697 20.3845 12.9453 20.567 13.4745L23.4414 20.1585L26.8626 27.7872C26.8677 27.7821 26.8726 27.777 26.8776 27.772C28.7558 26.2512 33.1419 21.8635 35.6605 16.4797C36.3829 15.0501 37.3441 11.356 35.4095 8.0162C34.6567 6.50296 32.0971 3.42173 27.8814 3.20273C26.467 3.0655 23.0268 3.46172 20.5813 6.14449C20.0718 6.71547 18.9752 8.11275 18.665 9.13393Z" fill="#018969"/>
<path fill-rule="evenodd" clip-rule="evenodd" d="M17.4657 12.5412C16.7721 11.6509 15.7976 10.7542 14.559 10.3089C13.4907 9.76199 10.6015 9.15495 7.59096 11.1023C6.10252 12.1602 3.47137 15.2713 4.85418 19.2526C5.23839 20.6493 6.88723 24.0835 10.5414 27.7578L13.7039 20.6309L16.7608 13.5134C16.8483 13.2949 17.1073 12.7917 17.4657 12.5412ZM19.7821 12.4777C20.0021 12.6337 20.3804 13.0283 20.5477 13.5135L23.4221 20.1976L26.7823 27.6031C28.4433 25.9047 30.5958 23.2817 32.0062 20.2623C32.5764 19.1323 33.335 16.2125 31.8081 13.5727C31.214 12.3766 29.1938 9.94121 25.8664 9.76811C24.7501 9.65961 22.0349 9.97278 20.1047 12.0933C20.0159 12.193 19.9045 12.3245 19.7821 12.4777Z" fill="#00624B"/>
</g>
<path d="M55.2905 22.8239H49.1896L48.1413 25.801H45.6464L50.8668 11.209H53.6342L58.8546 25.801H56.3388L55.2905 22.8239ZM54.6196 20.8741L52.2505 14.1023L49.8605 20.8741H54.6196ZM63.5145 11.23V25.801H61.1245V11.23H63.5145ZM91.0722 11.23L86.7534 25.801H84.0488L80.9879 14.7732L77.7382 25.801L75.0547 25.8219L70.9245 11.23H73.4613L76.4803 23.0964L79.7509 11.23H82.4345L85.4745 23.0335L88.5144 11.23H91.0722ZM103.631 19.742C103.631 20.1752 103.603 20.5666 103.547 20.916H94.7207C94.7906 21.8385 95.133 22.5793 95.748 23.1384C96.363 23.6974 97.1177 23.977 98.0123 23.977C99.2981 23.977 100.207 23.4389 100.738 22.3626H103.317C102.967 23.4249 102.331 24.2984 101.409 24.9833C100.5 25.6542 99.368 25.9897 98.0123 25.9897C96.9081 25.9897 95.9157 25.7451 95.0352 25.2559C94.1686 24.7527 93.4837 24.0538 92.9806 23.1593C92.4914 22.2508 92.2468 21.2026 92.2468 20.0145C92.2468 18.8265 92.4844 17.7852 92.9596 16.8907C93.4488 15.9822 94.1267 15.2833 94.9932 14.7941C95.8738 14.3049 96.8801 14.0603 98.0123 14.0603C99.1025 14.0603 100.074 14.2979 100.926 14.7732C101.779 15.2484 102.443 15.9193 102.918 16.7858C103.393 17.6384 103.631 18.6238 103.631 19.742ZM101.136 18.9872C101.122 18.1067 100.808 17.4008 100.193 16.8697C99.5777 16.3386 98.8159 16.073 97.9074 16.073C97.0828 16.073 96.377 16.3386 95.7899 16.8697C95.2029 17.3868 94.8535 18.0927 94.7417 18.9872H101.136ZM108.373 10.2866V25.801H105.983V10.2866H108.373ZM113.901 10.2866V25.801H111.511V10.2866H113.901ZM122.867 14.0603C123.776 14.0603 124.587 14.249 125.299 14.6264C126.026 15.0038 126.592 15.5629 126.998 16.3036C127.403 17.0444 127.606 17.9389 127.606 18.9872V25.801H125.237V19.3436C125.237 18.3093 124.978 17.5196 124.461 16.9745C123.944 16.4155 123.238 16.1359 122.343 16.1359C121.449 16.1359 120.736 16.4155 120.205 16.9745C119.688 17.5196 119.429 18.3093 119.429 19.3436V25.801H117.039V14.249H119.429V15.5698C119.82 15.0946 120.317 14.7242 120.918 14.4587C121.533 14.1931 122.183 14.0603 122.867 14.0603ZM141.242 19.742C141.242 20.1752 141.214 20.5666 141.158 20.916H132.331C132.401 21.8385 132.744 22.5793 133.359 23.1384C133.974 23.6974 134.729 23.977 135.623 23.977C136.909 23.977 137.817 23.4389 138.349 22.3626H140.927C140.578 23.4249 139.942 24.2984 139.019 24.9833C138.111 25.6542 136.979 25.9897 135.623 25.9897C134.519 25.9897 133.527 25.7451 132.646 25.2559C131.779 24.7527 131.095 24.0538 130.591 23.1593C130.102 22.2508 129.858 21.2026 129.858 20.0145C129.858 18.8265 130.095 17.7852 130.57 16.8907C131.06 15.9822 131.737 15.2833 132.604 14.7941C133.485 14.3049 134.491 14.0603 135.623 14.0603C136.713 14.0603 137.685 14.2979 138.537 14.7732C139.39 15.2484 140.054 15.9193 140.529 16.7858C141.004 17.6384 141.242 18.6238 141.242 19.742ZM138.747 18.9872C138.733 18.1067 138.418 17.4008 137.803 16.8697C137.188 16.3386 136.427 16.073 135.518 16.073C134.694 16.073 133.988 16.3386 133.401 16.8697C132.814 17.3868 132.464 18.0927 132.352 18.9872H138.747ZM147.787 25.9897C146.878 25.9897 146.061 25.8289 145.334 25.5074C144.621 25.172 144.055 24.7247 143.636 24.1657C143.216 23.5926 142.993 22.9567 142.965 22.2578H145.439C145.481 22.747 145.711 23.1593 146.131 23.4948C146.564 23.8162 147.102 23.977 147.745 23.977C148.416 23.977 148.933 23.8512 149.296 23.5996C149.674 23.334 149.862 22.9986 149.862 22.5933C149.862 22.16 149.653 21.8385 149.234 21.6288C148.828 21.4192 148.178 21.1886 147.284 20.937C146.417 20.6994 145.711 20.4688 145.166 20.2451C144.621 20.0215 144.146 19.6791 143.741 19.2178C143.349 18.7566 143.154 18.1486 143.154 17.3938C143.154 16.7789 143.335 16.2198 143.699 15.7166C144.062 15.1995 144.579 14.7941 145.25 14.5006C145.935 14.2071 146.718 14.0603 147.598 14.0603C148.912 14.0603 149.967 14.3958 150.764 15.0667C151.575 15.7236 152.008 16.6251 152.064 17.7712H149.674C149.632 17.2541 149.422 16.8417 149.045 16.5343C148.667 16.2268 148.157 16.073 147.514 16.073C146.885 16.073 146.403 16.1918 146.068 16.4294C145.732 16.667 145.565 16.9815 145.565 17.3729C145.565 17.6804 145.676 17.9389 145.9 18.1486C146.124 18.3582 146.396 18.526 146.718 18.6518C147.039 18.7636 147.514 18.9103 148.143 19.092C148.982 19.3157 149.667 19.5463 150.198 19.7839C150.743 20.0075 151.211 20.343 151.603 20.7902C151.994 21.2375 152.197 21.8315 152.211 22.5723C152.211 23.2292 152.029 23.8162 151.666 24.3334C151.302 24.8505 150.785 25.2559 150.114 25.5494C149.457 25.8429 148.681 25.9897 147.787 25.9897ZM158.986 25.9897C158.078 25.9897 157.26 25.8289 156.533 25.5074C155.82 25.172 155.254 24.7247 154.835 24.1657C154.416 23.5926 154.192 22.9567 154.164 22.2578H156.638C156.68 22.747 156.911 23.1593 157.33 23.4948C157.763 23.8162 158.301 23.977 158.944 23.977C159.615 23.977 160.132 23.8512 160.496 23.5996C160.873 23.334 161.062 22.9986 161.062 22.5933C161.062 22.16 160.852 21.8385 160.433 21.6288C160.027 21.4192 159.378 21.1886 158.483 20.937C157.616 20.6994 156.911 20.4688 156.366 20.2451C155.82 20.0215 155.345 19.6791 154.94 19.2178C154.549 18.7566 154.353 18.1486 154.353 17.3938C154.353 16.7789 154.535 16.2198 154.898 15.7166C155.261 15.1995 155.779 14.7941 156.449 14.5006C157.134 14.2071 157.917 14.0603 158.798 14.0603C160.111 14.0603 161.167 14.3958 161.963 15.0667C162.774 15.7236 163.207 16.6251 163.263 17.7712H160.873C160.831 17.2541 160.622 16.8417 160.244 16.5343C159.867 16.2268 159.357 16.073 158.714 16.073C158.085 16.073 157.602 16.1918 157.267 16.4294C156.932 16.667 156.764 16.9815 156.764 17.3729C156.764 17.6804 156.876 17.9389 157.099 18.1486C157.323 18.3582 157.596 18.526 157.917 18.6518C158.238 18.7636 158.714 18.9103 159.343 19.092C160.181 19.3157 160.866 19.5463 161.397 19.7839C161.942 20.0075 162.411 20.343 162.802 20.7902C163.193 21.2375 163.396 21.8315 163.41 22.5723C163.41 23.2292 163.228 23.8162 162.865 24.3334C162.501 24.8505 161.984 25.2559 161.313 25.5494C160.656 25.8429 159.881 25.9897 158.986 25.9897Z" fill="white"/>
<defs>
<linearGradient id="paint0_linear_7659_7092" x1="18.5938" y1="20.2807" x2="18.5938" y2="33.6072" gradientUnits="userSpaceOnUse">
<stop stop-color="#DBC572"/>
<stop offset="1" stop-color="#896710"/>
</linearGradient>
<clipPath id="clip0_7659_7092">
<rect width="35.7827" height="35.7827" fill="white" transform="translate(0.765625 0.409607)"/>
</clipPath>
</defs>
</svg>
