<svg width="38" height="38" viewBox="0 0 38 38" fill="none" xmlns="http://www.w3.org/2000/svg">
<path d="M0 18.9389C0 8.71684 8.28666 0.430176 18.5088 0.430176H19.3312C29.5533 0.430176 37.8399 8.71684 37.8399 18.9389C37.8399 29.1611 29.5533 37.4477 19.3311 37.4477H18.5088C8.28666 37.4477 0 29.1611 0 18.9389Z" fill="#047857"/>
<g clip-path="url(#clip0_8271_14405)">
<path d="M19.5083 25.0863V29.4442C19.5083 29.775 19.2439 30.0443 18.9191 30.0443C18.5944 30.0443 18.33 29.775 18.33 29.4442V25.0863C16.527 24.9399 14.9015 24.1283 13.6912 22.8956C12.3479 21.5291 11.5156 19.6439 11.5156 17.5707C11.5156 17.24 11.78 16.9706 12.1048 16.9706C12.4295 16.9706 12.6939 17.24 12.6939 17.5707C12.6939 19.3132 13.3949 20.8983 14.5235 22.0479C15.6521 23.1975 17.2084 23.9114 18.9191 23.9114C20.6298 23.9114 22.1861 23.1975 23.3147 22.0479C24.4434 20.8983 25.1443 19.3132 25.1443 17.5707C25.1443 17.24 25.4087 16.9706 25.7335 16.9706C26.0582 16.9706 26.3226 17.24 26.3226 17.5707C26.3226 19.6457 25.4904 21.531 24.1488 22.8974C22.9368 24.1301 21.3113 24.9399 19.5083 25.0863ZM18.9582 7.83374C20.0904 7.83374 21.1196 8.3055 21.8649 9.06465C22.6102 9.82379 23.0734 10.8721 23.0734 12.0253V17.4478C23.0734 18.601 22.6102 19.6494 21.8649 20.4085C21.1196 21.1676 20.0904 21.6394 18.9582 21.6394C17.826 21.6394 16.7967 21.1676 16.0514 20.4085C15.3061 19.6494 14.8429 18.601 14.8429 17.4478V12.0253C14.8429 10.8721 15.3061 9.82379 16.0514 9.06465C16.7967 8.3055 17.826 7.83374 18.9582 7.83374ZM21.0309 9.91417C20.4985 9.37192 19.7638 9.03573 18.9582 9.03573C18.1507 9.03573 17.4178 9.37192 16.8855 9.91417C16.3531 10.4564 16.023 11.2047 16.023 12.0253V17.4478C16.023 18.2702 16.3531 19.0167 16.8855 19.559C17.4178 20.1012 18.1525 20.4374 18.9582 20.4374C19.7656 20.4374 20.4985 20.1012 21.0309 19.559C21.5632 19.0167 21.8933 18.2684 21.8933 17.4478V12.0253C21.8951 11.2029 21.5632 10.4564 21.0309 9.91417Z" fill="white"/>
</g>
<defs>
<clipPath id="clip0_8271_14405">
<rect width="14.8069" height="22.2105" fill="white" transform="translate(11.5156 7.83374)"/>
</clipPath>
</defs>
</svg>
