<svg width="39" height="38" viewBox="0 0 39 38" fill="none" xmlns="http://www.w3.org/2000/svg">
<path d="M0.183594 18.9389C0.183594 8.71684 8.47025 0.430176 18.6924 0.430176H19.5147C29.7369 0.430176 38.0235 8.71684 38.0235 18.9389C38.0235 29.1611 29.7369 37.4477 19.5147 37.4477H18.6924C8.47025 37.4477 0.183594 29.1611 0.183594 18.9389Z" fill="#E54945"/>
<g clip-path="url(#clip0_8271_14410)">
<path d="M23.0712 20.244H18.2769C17.9336 20.2314 17.6086 20.0883 17.3702 19.8448C17.1319 19.6012 16.9987 19.2762 16.9987 18.9381C16.9987 18.5999 17.1319 18.2749 17.3702 18.0313C17.6086 17.7878 17.9336 17.6447 18.2769 17.6321H23.0712L21.5141 15.9223C21.2817 15.6653 21.1613 15.3287 21.1788 14.9852C21.1963 14.6416 21.3504 14.3186 21.6078 14.0858C21.7343 13.9713 21.8828 13.8826 22.0445 13.8251C22.2062 13.7675 22.3779 13.7422 22.5497 13.7506C22.7214 13.759 22.8897 13.801 23.0448 13.8741C23.1999 13.9471 23.3387 14.0498 23.4531 14.1762L26.9823 18.0533C27.2041 18.2932 27.3279 18.6053 27.3299 18.9297C27.3319 19.254 27.212 19.5676 26.9933 19.8102L23.4531 23.6981C23.339 23.8248 23.2004 23.9279 23.0453 24.0012C22.8903 24.0746 22.7219 24.1168 22.5501 24.1254C22.3783 24.134 22.2064 24.1088 22.0446 24.0512C21.8828 23.9937 21.7343 23.905 21.6078 23.7903C21.3504 23.5576 21.1963 23.2345 21.1788 22.891C21.1613 22.5474 21.2817 22.2108 21.5141 21.9539L23.0712 20.244ZM18.7635 27.4577C18.9343 27.4913 19.0968 27.5577 19.2416 27.6531C19.3863 27.7484 19.5106 27.871 19.6073 28.0136C19.704 28.1563 19.7712 28.3163 19.805 28.4845C19.8389 28.6528 19.8387 28.8259 19.8046 28.9941C19.7705 29.1622 19.7031 29.3222 19.6062 29.4647C19.5093 29.6072 19.3848 29.7295 19.2399 29.8247C19.0949 29.9199 18.9324 29.986 18.7615 30.0193C18.5906 30.0526 18.4147 30.0525 18.2439 30.0189L17.6251 29.896C13.2366 29.0393 10.8789 28.553 10.8789 22.3298V15.1776C10.8789 9.21644 13.4092 8.7501 17.5994 7.98011L18.2549 7.8572C18.5999 7.79224 18.957 7.86487 19.2476 8.0591C19.5383 8.25333 19.7386 8.55326 19.8046 8.8929C19.8706 9.23253 19.7968 9.58407 19.5995 9.87016C19.4022 10.1563 19.0975 10.3535 18.7525 10.4184L18.0859 10.5449C15.2472 11.0673 13.5322 11.3818 13.5322 15.1812V22.3298C13.5322 26.4166 15.1425 26.751 18.141 27.3366L18.7635 27.4577Z" fill="white"/>
</g>
<defs>
<clipPath id="clip0_8271_14410">
<rect width="16.4521" height="22.2105" fill="white" transform="translate(10.8789 7.83374)"/>
</clipPath>
</defs>
</svg>
