<svg width="18" height="24" viewBox="0 0 18 24" fill="none" xmlns="http://www.w3.org/2000/svg">
<path d="M13.0712 13.244H8.27691C7.9336 13.2314 7.60861 13.0883 7.37025 12.8448C7.13188 12.6012 6.99871 12.2762 6.99871 11.9381C6.99871 11.5999 7.13188 11.2749 7.37025 11.0313C7.60861 10.7878 7.9336 10.6447 8.27691 10.6321H13.0712L11.5141 8.92225C11.2817 8.66532 11.1613 8.32874 11.1788 7.98516C11.1963 7.64158 11.3504 7.31857 11.6078 7.08583C11.7343 6.97126 11.8828 6.88262 12.0445 6.82507C12.2062 6.76752 12.3779 6.74221 12.5497 6.75062C12.7214 6.75903 12.8897 6.80099 13.0448 6.87406C13.1999 6.94712 13.3387 7.04983 13.4531 7.17621L16.9823 11.0533C17.2041 11.2932 17.3279 11.6053 17.3299 11.9297C17.3319 12.254 17.212 12.5676 16.9933 12.8102L13.4531 16.6981C13.339 16.8248 13.2004 16.9279 13.0453 17.0012C12.8903 17.0746 12.7219 17.1168 12.5501 17.1254C12.3783 17.134 12.2064 17.1088 12.0446 17.0512C11.8828 16.9937 11.7343 16.905 11.6078 16.7903C11.3504 16.5576 11.1963 16.2345 11.1788 15.891C11.1613 15.5474 11.2817 15.2108 11.5141 14.9539L13.0712 13.244ZM8.7635 20.4577C8.93434 20.4913 9.09679 20.5577 9.24157 20.6531C9.38635 20.7484 9.51062 20.871 9.6073 21.0136C9.70398 21.1563 9.77116 21.3163 9.80502 21.4845C9.83887 21.6528 9.83874 21.8259 9.80462 21.9941C9.7705 22.1622 9.70306 22.3222 9.60616 22.4647C9.50926 22.6072 9.38479 22.7295 9.23986 22.8247C9.09493 22.9199 8.93238 22.986 8.76148 23.0193C8.59059 23.0526 8.4147 23.0525 8.24386 23.0189L7.62506 22.896C3.23657 22.0393 0.878906 21.553 0.878906 15.3298V8.17756C0.878906 2.21644 3.40917 1.7501 7.59935 0.980109L8.25487 0.857199C8.5999 0.792244 8.95702 0.86487 9.24765 1.0591C9.53828 1.25333 9.73863 1.55326 9.80462 1.8929C9.8706 2.23253 9.79682 2.58407 9.59951 2.87016C9.4022 3.15625 9.09751 3.35347 8.75248 3.41842L8.08594 3.54495C5.2472 4.06731 3.5322 4.38182 3.5322 8.18118V15.3298C3.5322 19.4166 5.14253 19.751 8.14103 20.3366L8.7635 20.4577Z" fill="white"/>
</svg>
